<svg xmlns="http://www.w3.org/2000/svg" xmlns:xlink="http://www.w3.org/1999/xlink" width="100%" zoomAndPan="magnify" viewBox="40 120 520 170" height="100%" preserveAspectRatio="xMidYMid meet" version="1.0"><defs><g/><clipPath id="fae7ca31d0"><path d="M 46 163 L 277 163 L 277 226 L 46 226 Z M 46 163 " clip-rule="nonzero"/></clipPath><clipPath id="2a12e9ce25"><path d="M 274.101562 234.1875 L 45.46875 225.394531 L 48.164062 155.359375 L 276.796875 164.152344 Z M 274.101562 234.1875 " clip-rule="nonzero"/></clipPath><clipPath id="cda228266d"><path d="M 274.101562 234.1875 L 45.46875 225.394531 L 48.164062 155.359375 L 276.796875 164.152344 Z M 274.101562 234.1875 " clip-rule="nonzero"/></clipPath><clipPath id="e63b689b25"><path d="M 321 156 L 552 156 L 552 219 L 321 219 Z M 321 156 " clip-rule="nonzero"/></clipPath><clipPath id="35f11dc501"><path d="M 549.574219 227.503906 L 320.9375 218.710938 L 323.632812 148.679688 L 552.265625 157.472656 Z M 549.574219 227.503906 " clip-rule="nonzero"/></clipPath><clipPath id="2909073d99"><path d="M 549.574219 227.503906 L 320.9375 218.710938 L 323.632812 148.679688 L 552.265625 157.472656 Z M 549.574219 227.503906 " clip-rule="nonzero"/></clipPath></defs><g clip-path="url(#fae7ca31d0)"><g clip-path="url(#2a12e9ce25)"><g clip-path="url(#cda228266d)"><path fill="#FFFFFF" d="M 253.292969 182.761719 C 250.691406 181.710938 248.277344 180.683594 245.808594 179.765625 C 243.34375 178.847656 241.414062 177.175781 239.566406 175.410156 C 238.253906 174.15625 237.871094 172.558594 238.570312 170.828125 C 239.027344 169.691406 239.515625 168.519531 240.140625 167.46875 C 242.441406 163.632812 246.0625 162.488281 250.285156 163.824219 C 255.792969 165.554688 257.414062 167.800781 258.117188 174.667969 C 258.265625 176.113281 258.035156 177.59375 257.96875 179.300781 C 258.9375 179.210938 259.933594 179.230469 260.894531 179.03125 C 264.640625 178.273438 268.214844 177.160156 271.273438 174.648438 C 272.335938 173.789062 273.808594 173.371094 275.136719 172.914062 C 276.019531 172.617188 276.261719 172.972656 275.925781 173.863281 C 275.09375 176.125 273.53125 178.078125 271.484375 179.375 C 267.101562 182.199219 262.441406 184.09375 257.074219 183.632812 C 256.773438 183.605469 256.273438 183.902344 256.152344 184.183594 C 253.082031 190.777344 248.582031 196.226562 243.398438 201.296875 C 237.492188 207.085938 230.480469 211.644531 222.78125 214.6875 C 216.089844 217.359375 209.332031 220.234375 202.207031 221.480469 C 191.273438 223.386719 180.316406 223.125 169.398438 220.851562 C 158.03125 218.5 146.914062 215.238281 135.765625 212.117188 C 128.371094 210.042969 120.964844 207.90625 113.316406 207.167969 C 107.433594 206.59375 101.488281 206.460938 95.566406 206.425781 C 90.851562 206.386719 86.125 206.597656 81.421875 207.050781 C 75.78125 207.59375 70.539062 209.734375 65.273438 211.65625 C 58.417969 214.128906 52.769531 218.234375 48.53125 224.214844 C 48.082031 224.84375 47.597656 225.476562 46.742188 225.078125 C 45.886719 224.679688 46.015625 223.832031 46.214844 223.140625 C 46.769531 221.074219 47.871094 219.183594 49.402344 217.675781 C 53.710938 213.472656 58.410156 209.871094 64.171875 207.828125 C 69.789062 205.828125 75.320312 203.539062 81.3125 202.898438 C 85.191406 202.496094 89.113281 202.234375 93.023438 202.179688 C 98.789062 202.117188 104.570312 202.085938 110.332031 202.417969 C 118.847656 202.902344 127.054688 205.164062 135.25 207.347656 C 144.402344 209.757812 153.496094 212.5 162.683594 214.816406 C 170.222656 216.71875 177.855469 218.328125 185.722656 218.375 C 191.261719 218.398438 196.929688 218.777344 202.257812 217.300781 C 213.203125 214.273438 224.371094 211.566406 233.902344 204.953125 C 241.449219 199.71875 247.992188 193.433594 252.253906 185.109375 C 252.644531 184.367188 252.929688 183.570312 253.292969 182.761719 Z M 254.503906 178.484375 C 255.214844 175.980469 254.828125 173.71875 254.203125 171.460938 C 253.367188 168.515625 250.699219 166.625 247.46875 166.644531 C 244.667969 166.660156 242.964844 168.164062 242.0625 171.421875 C 242.046875 171.453125 242.011719 171.5 242.027344 171.53125 C 242.183594 171.996094 242.191406 172.628906 242.511719 172.910156 C 245.910156 175.921875 250.085938 177.300781 254.503906 178.484375 Z M 254.503906 178.484375 " fill-opacity="1" fill-rule="nonzero"/></g></g></g><g clip-path="url(#e63b689b25)"><g clip-path="url(#35f11dc501)"><g clip-path="url(#2909073d99)"><path fill="#FFFFFF" d="M 528.761719 176.078125 C 526.160156 175.03125 523.746094 174.003906 521.28125 173.085938 C 518.8125 172.167969 516.882812 170.492188 515.035156 168.730469 C 513.722656 167.476562 513.339844 165.878906 514.042969 164.148438 C 514.496094 163.007812 514.984375 161.839844 515.609375 160.789062 C 517.910156 156.949219 521.53125 155.808594 525.753906 157.140625 C 531.261719 158.871094 532.886719 161.121094 533.585938 167.984375 C 533.738281 169.433594 533.503906 170.910156 533.441406 172.617188 C 534.410156 172.527344 535.40625 172.550781 536.363281 172.351562 C 540.113281 171.59375 543.683594 170.480469 546.742188 167.96875 C 547.804688 167.109375 549.277344 166.6875 550.609375 166.234375 C 551.488281 165.933594 551.730469 166.292969 551.394531 167.183594 C 550.5625 169.445312 549 171.394531 546.957031 172.695312 C 542.574219 175.519531 537.910156 177.414062 532.546875 176.953125 C 532.246094 176.925781 531.742188 177.222656 531.621094 177.503906 C 528.550781 184.097656 524.050781 189.542969 518.867188 194.617188 C 512.964844 200.40625 505.949219 204.964844 498.25 208.007812 C 491.5625 210.679688 484.800781 213.554688 477.679688 214.796875 C 466.746094 216.707031 455.785156 216.441406 444.871094 214.171875 C 433.5 211.816406 422.386719 208.554688 411.234375 205.4375 C 403.84375 203.363281 396.4375 201.226562 388.785156 200.488281 C 382.90625 199.914062 376.957031 199.78125 371.039062 199.742188 C 366.324219 199.703125 361.597656 199.917969 356.894531 200.371094 C 351.253906 200.914062 346.007812 203.054688 340.742188 204.972656 C 333.890625 207.449219 328.238281 211.554688 324.003906 217.53125 C 323.550781 218.164062 323.066406 218.792969 322.210938 218.398438 C 321.355469 218 321.484375 217.148438 321.683594 216.460938 C 322.238281 214.394531 323.339844 212.503906 324.871094 210.996094 C 329.179688 206.792969 333.878906 203.191406 339.640625 201.148438 C 345.257812 199.148438 350.792969 196.859375 356.785156 196.21875 C 360.664062 195.8125 364.582031 195.554688 368.496094 195.496094 C 374.257812 195.433594 380.039062 195.402344 385.804688 195.734375 C 394.316406 196.222656 402.527344 198.484375 410.722656 200.667969 C 419.875 203.078125 428.964844 205.816406 438.152344 208.132812 C 445.695312 210.039062 453.324219 211.644531 461.191406 211.695312 C 466.730469 211.71875 472.398438 212.09375 477.726562 210.621094 C 488.671875 207.589844 499.839844 204.886719 509.371094 198.273438 C 516.917969 193.039062 523.460938 186.75 527.722656 178.429688 C 528.117188 177.683594 528.398438 176.886719 528.761719 176.078125 Z M 529.972656 171.804688 C 530.6875 169.300781 530.296875 167.035156 529.671875 164.78125 C 528.835938 161.835938 526.171875 159.945312 522.941406 159.960938 C 520.136719 159.980469 518.433594 161.480469 517.53125 164.742188 C 517.515625 164.769531 517.480469 164.816406 517.496094 164.851562 C 517.652344 165.316406 517.660156 165.949219 517.980469 166.230469 C 521.378906 169.242188 525.554688 170.621094 529.972656 171.804688 Z M 529.972656 171.804688 " fill-opacity="1" fill-rule="nonzero"/></g></g></g><g fill="#FFFFFF" fill-opacity="1"><g transform="translate(259.044023, 229.317909)"><g><path d="M -11.796875 34.890625 C -14.078125 34.078125 -16.082031 32.863281 -17.8125 31.25 C -19.539062 29.644531 -20.972656 27.78125 -22.109375 25.65625 C -23.253906 23.539062 -24.132812 21.363281 -24.75 19.125 C -25.6875 15.582031 -26.03125 12.066406 -25.78125 8.578125 C -25.539062 5.097656 -24.859375 1.679688 -23.734375 -1.671875 C -22.617188 -5.035156 -21.1875 -8.304688 -19.4375 -11.484375 C -17.6875 -14.660156 -15.757812 -17.71875 -13.65625 -20.65625 C -11.5625 -23.59375 -9.429688 -26.363281 -7.265625 -28.96875 C -4.128906 -32.800781 -0.78125 -36.425781 2.78125 -39.84375 C 6.34375 -43.269531 10.101562 -46.46875 14.0625 -49.4375 C 13.082031 -63.738281 10.066406 -77.425781 5.015625 -90.5 C 4.679688 -91.320312 4.757812 -91.894531 5.25 -92.21875 C 5.738281 -92.539062 6.398438 -92.660156 7.234375 -92.578125 C 8.078125 -92.503906 8.882812 -92.269531 9.65625 -91.875 C 10.425781 -91.488281 10.9375 -90.992188 11.1875 -90.390625 C 13.550781 -84.515625 15.484375 -78.507812 16.984375 -72.375 C 18.492188 -66.25 19.578125 -60.050781 20.234375 -53.78125 C 22.878906 -55.488281 25.585938 -57.101562 28.359375 -58.625 C 31.128906 -60.15625 33.957031 -61.554688 36.84375 -62.828125 C 37.09375 -62.898438 37.398438 -62.816406 37.765625 -62.578125 C 38.128906 -62.335938 38.148438 -62.113281 37.828125 -61.90625 C 31.835938 -58.644531 26.050781 -55.019531 20.46875 -51.03125 C 21.207031 -42.71875 21.207031 -34.382812 20.46875 -26.03125 C 20.0625 -21.550781 19.460938 -16.957031 18.671875 -12.25 C 17.878906 -7.539062 16.835938 -2.878906 15.546875 1.734375 C 14.265625 6.359375 12.695312 10.847656 10.84375 15.203125 C 8.988281 19.566406 6.800781 23.664062 4.28125 27.5 C 3.019531 29.414062 1.59375 31.085938 0 32.515625 C -1.59375 33.941406 -3.351562 34.894531 -5.28125 35.375 C -7.21875 35.863281 -9.390625 35.703125 -11.796875 34.890625 Z M -22.484375 4.03125 C -23.140625 6.925781 -23.476562 9.890625 -23.5 12.921875 C -23.519531 15.960938 -23.019531 18.90625 -22 21.75 C -21.425781 23.382812 -20.597656 24.953125 -19.515625 26.453125 C -18.441406 27.960938 -17.203125 29.265625 -15.796875 30.359375 C -14.390625 31.460938 -12.921875 32.195312 -11.390625 32.5625 C -9.867188 32.9375 -8.363281 32.785156 -6.875 32.109375 C -5.382812 31.441406 -4.050781 30.066406 -2.875 27.984375 C 1.445312 20.566406 4.941406 12.773438 7.609375 4.609375 C 10.273438 -3.554688 12.15625 -11.925781 13.25 -20.5 C 14.351562 -29.070312 14.679688 -37.640625 14.234375 -46.203125 C 10.035156 -42.859375 6.050781 -39.25 2.28125 -35.375 C -1.476562 -31.507812 -4.988281 -27.394531 -8.25 -23.03125 C -11.300781 -18.957031 -14.128906 -14.671875 -16.734375 -10.171875 C -19.347656 -5.671875 -21.265625 -0.9375 -22.484375 4.03125 Z M 2.265625 -98.140625 C 1.609375 -98.222656 0.941406 -98.46875 0.265625 -98.875 C -0.398438 -99.28125 -0.9375 -99.75 -1.34375 -100.28125 C -1.75 -100.9375 -1.757812 -101.519531 -1.375 -102.03125 C -0.988281 -102.539062 -0.445312 -102.773438 0.25 -102.734375 C 0.976562 -102.691406 1.738281 -102.535156 2.53125 -102.265625 C 3.332031 -102.003906 3.976562 -101.585938 4.46875 -101.015625 C 4.875 -100.734375 5.15625 -100.410156 5.3125 -100.046875 C 5.394531 -99.753906 5.394531 -99.460938 5.3125 -99.171875 C 5.226562 -98.890625 5.023438 -98.710938 4.703125 -98.640625 C 4.460938 -98.265625 4.085938 -98.078125 3.578125 -98.078125 C 3.066406 -98.078125 2.628906 -98.097656 2.265625 -98.140625 Z M 2.265625 -98.140625 "/></g></g></g><g fill="#FFFFFF" fill-opacity="1"><g transform="translate(294.574661, 284.846417)"><g><path d="M 54.640625 -81.40625 C 49.867188 -80.132812 45.457031 -78.335938 41.40625 -76.015625 C 37.351562 -73.703125 33.570312 -70.972656 30.0625 -67.828125 C 32.550781 -65.140625 34.832031 -62.347656 36.90625 -59.453125 C 38.988281 -56.566406 40.691406 -53.484375 42.015625 -50.203125 C 43.335938 -46.921875 44.039062 -43.367188 44.125 -39.546875 C 44.207031 -36.242188 43.769531 -33.003906 42.8125 -29.828125 C 41.851562 -26.648438 40.515625 -23.632812 38.796875 -20.78125 C 37.085938 -17.925781 35.132812 -15.273438 32.9375 -12.828125 C 31.351562 -11.078125 29.570312 -9.335938 27.59375 -7.609375 C 25.613281 -5.878906 23.515625 -4.332031 21.296875 -2.96875 C 19.078125 -1.601562 16.742188 -0.585938 14.296875 0.078125 C 11.859375 0.753906 9.375 0.929688 6.84375 0.609375 C 3.257812 0.160156 0.472656 -0.820312 -1.515625 -2.34375 C -3.515625 -3.875 -4.859375 -5.78125 -5.546875 -8.0625 C -6.242188 -10.34375 -6.453125 -12.835938 -6.171875 -15.546875 C -5.890625 -18.253906 -5.28125 -21.066406 -4.34375 -23.984375 C -3.40625 -26.898438 -2.273438 -29.742188 -0.953125 -32.515625 C 0.367188 -35.285156 1.710938 -37.859375 3.078125 -40.234375 C 4.453125 -42.617188 5.6875 -44.628906 6.78125 -46.265625 C 9.1875 -49.847656 11.785156 -53.503906 14.578125 -57.234375 C 17.367188 -60.960938 20.394531 -64.472656 23.65625 -67.765625 C 21.25 -70.378906 18.800781 -72.9375 16.3125 -75.4375 C 13.832031 -77.945312 11.59375 -80.503906 9.59375 -83.109375 C 6.738281 -86.773438 4.4375 -90.726562 2.6875 -94.96875 C 0.9375 -99.207031 0.101562 -103.664062 0.1875 -108.34375 C 0.226562 -110.625 0.5 -112.945312 1 -115.3125 C 1.507812 -117.675781 2.273438 -119.9375 3.296875 -122.09375 C 4.316406 -124.257812 5.628906 -126.195312 7.234375 -127.90625 C 8.847656 -129.613281 10.753906 -130.957031 12.953125 -131.9375 C 15.398438 -133.039062 17.84375 -133.390625 20.28125 -132.984375 C 22.726562 -132.578125 24.941406 -131.597656 26.921875 -130.046875 C 28.898438 -128.492188 30.414062 -126.535156 31.46875 -124.171875 C 32.695312 -121.441406 33.347656 -118.703125 33.421875 -115.953125 C 33.503906 -113.203125 33.195312 -110.472656 32.5 -107.765625 C 31.8125 -105.054688 30.925781 -102.390625 29.84375 -99.765625 C 28.769531 -97.140625 27.679688 -94.5625 26.578125 -92.03125 C 26.421875 -91.625 26.066406 -91.441406 25.515625 -91.484375 C 24.960938 -91.523438 24.484375 -91.71875 24.078125 -92.0625 C 23.671875 -92.40625 23.53125 -92.800781 23.65625 -93.25 C 24.957031 -97.125 25.941406 -101.21875 26.609375 -105.53125 C 27.285156 -109.851562 27.378906 -114.070312 26.890625 -118.1875 C 26.765625 -119.375 26.519531 -120.628906 26.15625 -121.953125 C 25.789062 -123.273438 25.257812 -124.472656 24.5625 -125.546875 C 23.875 -126.628906 22.957031 -127.394531 21.8125 -127.84375 C 20.675781 -128.289062 19.269531 -128.226562 17.59375 -127.65625 C 15.96875 -127.132812 14.492188 -126.128906 13.171875 -124.640625 C 11.847656 -123.148438 10.78125 -121.691406 9.96875 -120.265625 C 8.25 -117.210938 7.195312 -114.066406 6.8125 -110.828125 C 6.425781 -107.585938 6.554688 -104.378906 7.203125 -101.203125 C 7.859375 -98.023438 8.921875 -94.945312 10.390625 -91.96875 C 11.859375 -89 13.609375 -86.226562 15.640625 -83.65625 C 17.359375 -81.5 19.203125 -79.378906 21.171875 -77.296875 C 23.148438 -75.222656 25.140625 -73.128906 27.140625 -71.015625 C 30.921875 -74.390625 35.007812 -77.175781 39.40625 -79.375 C 43.8125 -81.582031 48.582031 -82.804688 53.71875 -83.046875 C 54 -83.085938 54.289062 -82.984375 54.59375 -82.734375 C 54.90625 -82.492188 55.101562 -82.238281 55.1875 -81.96875 C 55.269531 -81.707031 55.085938 -81.519531 54.640625 -81.40625 Z M 37.46875 -37.40625 C 37.832031 -41.03125 37.554688 -44.398438 36.640625 -47.515625 C 35.722656 -50.628906 34.375 -53.59375 32.59375 -56.40625 C 30.820312 -59.21875 28.816406 -61.925781 26.578125 -64.53125 C 26.015625 -63.914062 25.4375 -63.300781 24.84375 -62.6875 C 24.25 -62.082031 23.664062 -61.4375 23.09375 -60.75 C 18.90625 -55.894531 14.90625 -50.664062 11.09375 -45.0625 C 7.28125 -39.46875 4.171875 -33.632812 1.765625 -27.5625 C 1.242188 -26.175781 0.6875 -24.65625 0.09375 -23 C -0.5 -21.351562 -0.96875 -19.65625 -1.3125 -17.90625 C -1.65625 -16.15625 -1.785156 -14.441406 -1.703125 -12.765625 C -1.628906 -11.097656 -1.222656 -9.550781 -0.484375 -8.125 C 0.367188 -6.5 1.425781 -5.359375 2.6875 -4.703125 C 3.945312 -4.054688 5.3125 -3.757812 6.78125 -3.8125 C 8.25 -3.875 9.734375 -4.179688 11.234375 -4.734375 C 12.742188 -5.285156 14.191406 -5.945312 15.578125 -6.71875 C 16.960938 -7.5 18.1875 -8.273438 19.25 -9.046875 C 22.257812 -11.285156 25.078125 -13.867188 27.703125 -16.796875 C 30.335938 -19.734375 32.53125 -22.941406 34.28125 -26.421875 C 36.03125 -29.910156 37.09375 -33.570312 37.46875 -37.40625 Z M 37.46875 -37.40625 "/></g></g></g></svg>